<svg xmlns="http://www.w3.org/2000/svg" viewBox="0 0 128 128" fill="none">
  <!-- Back bubble -->
  <rect x="8" y="8" width="72" height="56" rx="12" fill="#e05db5" opacity="0.85"/>
  <polygon points="24,64 36,64 28,78" fill="#e05db5" opacity="0.85"/>

  <!-- "A" glyph -->
  <g transform="translate(33, 46) scale(0.32)">
    <path d="M37.60-71.58L66.80 0L56.10 0L47.71-21.78L17.82-21.78L9.91 0L-0.10 0L27.39-71.58L37.60-71.58ZM20.51-29.30L44.82-29.30Q36.04-52.54 34.91-55.69Q33.79-58.84 32.42-64.11L32.42-64.11L32.18-64.11Q30.81-56.88 28.52-50.73L28.52-50.73L20.51-29.30Z" fill="white"/>
  </g>

  <!-- Front bubble -->
  <rect x="48" y="40" width="72" height="56" rx="12" fill="#8e4fb8" opacity="0.95"/>
  <polygon points="96,96 108,96 100,110" fill="#8e4fb8" opacity="0.95"/>

  <!-- "あ" glyph -->
  <g transform="translate(72, 78) scale(0.28)">
    <path d="M44.92-57.52L45.12-48.39Q48.78-49.61 56.01-49.61L56.01-49.61Q68.36-49.61 77.54-42.36Q86.72-35.11 86.72-24.12L86.72-24.12Q86.72-15.23 79.42-6.96Q72.12 1.32 60.50 6.01L60.50 6.01L55.32-2.59Q77.69-11.52 77.69-23.39L77.69-23.39Q77.69-28.37 74.56-32.54Q71.44-36.72 66.41-38.38L66.41-38.38Q60.01-19.73 49.80-11.28L49.80-11.28Q50.63-8.50 52.29-5.81L52.29-5.81L43.41-2.00L41.99-5.62Q35.45-1.42 27.39-1.42L27.39-1.42Q20.61-1.42 15.94-6.08Q11.28-10.74 11.28-18.02L11.28-18.02Q11.28-27.49 18.04-35.11Q24.80-42.72 36.08-46.48L36.08-46.48Q35.99-49.80 35.99-56.69L35.99-56.69L16.80-54.39L15.72-63.38L36.08-65.82L36.82-78.08L46.39-77.49Q45.75-73.88 45.21-67.09L45.21-67.09L74.71-70.61L75.98-61.52L44.92-57.52ZM57.32-40.09L57.32-40.09Q56.64-40.19 55.08-40.19L55.08-40.19Q50.15-40.19 45.70-39.31L45.70-39.31Q46.53-28.52 47.51-21.92L47.51-21.92Q52.44-26.95 57.32-40.09ZM39.50-14.79L39.50-14.79Q37.16-27.59 36.72-37.30L36.72-37.30Q29.69-34.77 25-29.59Q20.31-24.41 20.31-18.70L20.31-18.70Q20.31-15.28 22.66-13.09Q25-10.89 28.71-10.89L28.71-10.89Q33.35-10.89 39.50-14.79Z" fill="white"/>
  </g>
</svg>